:version 1.10
:name ASF
:units
  mass 1
  length 1
  angle deg
:documentation
  ASF file generated by Kaydara
:root
  axis xyz
  order  tx ty tz rx ry rz
  position 0 0 0
  orientation 0 0 0
:bonedata
  begin
    id 1
    name lfemurDummy
    direction 0.61522 -0.761478 0.204097
    length 5.68318
    axis 0 -0 0 xyz
  end
  begin
    id 2
    name lfemur
    direction 0.34202 -0.939693 -5.84747e-008
    length 16.9147
    axis 0 -0 20 xyz
    dof rx ry rz
    limits( -inf , inf )
( -inf , inf )
( -inf , inf )

  end
  begin
    id 3
    name ltibia
    direction 0.34202 -0.939693 1.20839e-009
    length 18.0532
    axis 0 -0 20 xyz
    dof rz ry rx
    limits( -inf , inf )
( -inf , inf )
( -inf , inf )

  end
  begin
    id 4
    name lfoot
    direction 0.0841971 -0.23133 0.969225
    length 5.23822
    axis -90 7.62852e-016 20 xyz
    dof ry rx rz
    limits( -inf , inf )
( -inf , inf )
( -inf , inf )

  end
  begin
    id 5
    name ltoes
    direction 0 0 0
    length 0
    axis 0 0 0 xyz
    dof rz ry rx
    limits( -inf , inf )
( -inf , inf )
( -inf , inf )

  end
  begin
    id 6
    name rfemurDummy
    direction -0.625247 -0.75382 0.202044
    length 5.74091
    axis 0 -0 0 xyz
  end
  begin
    id 7
    name rfemur
    direction -0.34202 -0.939693 -1.47013e-008
    length 16.4922
    axis 0 -0 -20 xyz
    dof rx ry rz
    limits( -inf , inf )
( -inf , inf )
( -inf , inf )

  end
  begin
    id 8
    name rtibia
    direction -0.34202 -0.939693 -7.74345e-010
    length 18.2421
    axis 0 -0 -20 xyz
    dof rz ry rx
    limits( -inf , inf )
( -inf , inf )
( -inf , inf )

  end
  begin
    id 9
    name rfoot
    direction -0.124331 -0.341598 0.931586
    length 5.45787
    axis -90 -7.62852e-016 -20 xyz
    dof ry rx rz
    limits( -inf , inf )
( -inf , inf )
( -inf , inf )

  end
  begin
    id 10
    name rtoes
    direction 0 0 0
    length 0
    axis 0 0 0 xyz
    dof rz ry rx
    limits( -inf , inf )
( -inf , inf )
( -inf , inf )

  end
  begin
    id 11
    name lowerbackDummy
    direction 0 0 0
    length 0
    axis 0 -0 0 xyz
  end
  begin
    id 12
    name lowerback
    direction -0.0218484 0.994884 -0.0986304
    length 4.45607
    axis 0 -0 0 xyz
    dof rx ry rz
    limits( -inf , inf )
( -inf , inf )
( -inf , inf )

  end
  begin
    id 13
    name upperback
    direction -0.00973057 0.999717 -0.0217111
    length 4.47449
    axis 0 -0 0 xyz
    dof rx ry rz
    limits( -inf , inf )
( -inf , inf )
( -inf , inf )

  end
  begin
    id 14
    name thorax
    direction -0.000928171 0.999699 0.0245198
    length 4.50973
    axis 0 -0 0 xyz
    dof rx ry rz
    limits( -inf , inf )
( -inf , inf )
( -inf , inf )

  end
  begin
    id 15
    name rclavicle
    direction -0.9009 0.425937 -0.0834055
    length 7.28587
    axis 0 -0 0 xyz
    dof rx ry rz
    limits( -inf , inf )
( -inf , inf )
( -inf , inf )

  end
  begin
    id 16
    name rhumerus
    direction -1 -2.23604e-007 -1.42637e-007
    length 13.5704
    axis 180 30 90 xyz
    dof rx ry rz
    limits( -inf , inf )
( -inf , inf )
( -inf , inf )

  end
  begin
    id 17
    name rradius
    direction -1 5.68281e-008 -4.4952e-007
    length 8.06782
    axis 180 30 90 xyz
    dof rz ry rx
    limits( -inf , inf )
( -inf , inf )
( -inf , inf )

  end
  begin
    id 18
    name rwrist
    direction -1 1.51393e-007 1.38143e-007
    length 4.03391
    axis -90 -90 0 xyz
    dof rz rx ry
    limits( -inf , inf )
( -inf , inf )
( -inf , inf )

  end
  begin
    id 19
    name rthumb
    direction 0 0 0
    length 0
    axis 0 0 0 xyz
    dof ry rx rz
    limits( -inf , inf )
( -inf , inf )
( -inf , inf )

  end
  begin
    id 20
    name rhand
    direction -1 -3.34077e-007 -5.59631e-007
    length 1.29744
    axis -90 -90 0 xyz
    dof ry rx rz
    limits( -inf , inf )
( -inf , inf )
( -inf , inf )

  end
  begin
    id 21
    name rfingers
    direction 0 0 0
    length 0
    axis 0 0 0 xyz
    dof rz ry rx
    limits( -inf , inf )
( -inf , inf )
( -inf , inf )

  end
  begin
    id 22
    name lclavicle
    direction 0.940017 0.332249 -0.0773232
    length 8.29589
    axis 0 -0 0 xyz
    dof rx ry rz
    limits( -inf , inf )
( -inf , inf )
( -inf , inf )

  end
  begin
    id 23
    name lhumerus
    direction 1 7.41158e-008 -1.44768e-008
    length 12.0042
    axis 180 -30 -90 xyz
    dof rx ry rz
    limits( -inf , inf )
( -inf , inf )
( -inf , inf )

  end
  begin
    id 24
    name lradius
    direction 1 -1.32972e-007 3.10821e-007
    length 8.1902
    axis 180 -30 -90 xyz
    dof rz ry rx
    limits( -inf , inf )
( -inf , inf )
( -inf , inf )

  end
  begin
    id 25
    name lwrist
    direction 1 3.08957e-007 4.01394e-007
    length 4.09509
    axis -90 90 0 xyz
    dof rz rx ry
    limits( -inf , inf )
( -inf , inf )
( -inf , inf )

  end
  begin
    id 26
    name lthumb
    direction 0 0 0
    length 0
    axis 0 0 0 xyz
    dof ry rx rz
    limits( -inf , inf )
( -inf , inf )
( -inf , inf )

  end
  begin
    id 27
    name lhand
    direction 1 -1.64125e-007 -6.99514e-007
    length 1.37229
    axis -90 90 0 xyz
    dof ry rx rz
    limits( -inf , inf )
( -inf , inf )
( -inf , inf )

  end
  begin
    id 28
    name lfingers
    direction 0 0 0
    length 0
    axis 0 0 0 xyz
    dof rz ry rx
    limits( -inf , inf )
( -inf , inf )
( -inf , inf )

  end
  begin
    id 29
    name lowerneck
    direction -0.030798 0.998024 0.0547665
    length 3.93918
    axis 0 -0 0 xyz
    dof rx ry rz
    limits( -inf , inf )
( -inf , inf )
( -inf , inf )

  end
  begin
    id 30
    name upperneck
    direction 0.0531588 0.996611 -0.0627736
    length 3.95491
    axis 0 -0 0 xyz
    dof rx ry rz
    limits( -inf , inf )
( -inf , inf )
( -inf , inf )

  end
  begin
    id 31
    name head
    direction 0 0 0
    length 0
    axis 0 0 0 xyz
    dof rx ry rz
    limits( -inf , inf )
( -inf , inf )
( -inf , inf )

  end
:hierarchy
  begin
    root lfemurDummy rfemurDummy lowerbackDummy
    lfemurDummy lfemur
    lfemur ltibia
    ltibia lfoot
    lfoot ltoes
    rfemurDummy rfemur
    rfemur rtibia
    rtibia rfoot
    rfoot rtoes
    lowerbackDummy lowerback
    lowerback upperback
    upperback thorax
    thorax rclavicle lclavicle lowerneck
    rclavicle rhumerus
    rhumerus rradius
    rradius rwrist
    rwrist rthumb rhand
    rhand rfingers
    lclavicle lhumerus
    lhumerus lradius
    lradius lwrist
    lwrist lthumb lhand
    lhand lfingers
    lowerneck upperneck
    upperneck head
  end

:SAMPLES-PER-SECOND 30
:FULLY-SPECIFIED
:DEGREES
75
root  14.56053276 39.26999851 -8.960844776 -4.841040134 -57.82080078 7.927020073
lowerback  9.05782032 2.463210106 -5.531980038
upperback  5.489079952 2.616839886 -5.384870052
thorax  0.6478310227 1.171040058 -2.708479881
lowerneck  4.864600182 7.419909954 -10.27670002
upperneck  34.38420105 10.05620003 -1.421329975
head  9.90447998 2.796600103 1.767490029
lclavicle  0 -9.442270133e-015 7.951389973e-016
lhumerus  19.7317009 8.034609795 67.63700104
lradius  2.607536545e-031 -2.381091599e-031 137.598999
lwrist  0 -0 22.01000023
lhand  -1.496451383e-031 -27.76390076 20.11240005
lfingers  90 7.125020027 -90
lthumb  89.89689403 5.08795885 91.16245106
rclavicle  0 -9.442270133e-015 7.951389973e-016
rhumerus  25.75040054 4.047999859 -75.12310028
rradius  -2.719245589e-031 2.252675623e-031 140.3609924
rwrist  7.062250077e-031 6.620859447e-032 -32.32630157
rhand  -7.920061211e-032 -33.2840004 9.303460121
rfingers  -90 -7.125020027 -90
rthumb  -92.93752616 -24.25625642 -97.11982154
rfemur  -21.33029938 6.855110168 0.5694689751
rtibia  -0 0 62.48540115
rfoot  -0 -18.59609985 -12.32769966
rtoes  5.373923086 19.29304026 -105.8922705
lfemur  -27.45969963 -2.209369898 3.257509947
ltibia  -0 0 50.22029877
lfoot  4.42855826e-032 4.662020206 -3.099930048
ltoes  -4.250644065 -19.5611806 -102.515957
76
root  14.66762212 39.04600068 -8.718066328 -5.209599972 -57.69060135 7.930530071
lowerback  9.014900208 2.430299997 -5.334690094
upperback  5.493700027 2.594029903 -5.409160137
thorax  0.6849870086 1.16497004 -2.839600086
lowerneck  4.811329842 7.521399975 -10.48390007
upperneck  33.92839813 10.15480042 -1.213080049
head  9.706879616 2.875509977 1.871170044
lclavicle  0 -9.442270133e-015 7.951389973e-016
lhumerus  19.2791996 7.952260017 68.32959747
lradius  2.601043613e-031 -2.388182606e-031 137.4429932
lwrist  0 1.765562519e-031 21.62529945
lhand  -1.496451383e-031 -27.76390076 20.11240005
lfingers  90 7.125020027 -90
lthumb  89.89689403 5.08795885 91.16245106
rclavicle  0 -9.442270133e-015 7.951389973e-016
rhumerus  25.54050064 4.790229797 -75.0463028
rradius  -2.729205765e-031 2.240598119e-031 140.6150055
rwrist  7.062250077e-031 2.317300806e-031 -31.22139931
rhand  -7.920061211e-032 -33.2840004 9.303460121
rfingers  -90 -7.125020027 -90
rthumb  -92.93752616 -24.25625642 -97.11982154
rfemur  -20.62610054 6.750959873 0.5597829819
rtibia  -0 0 63.54259872
rfoot  -0 -18.60239983 -9.898449898
rtoes  5.373923086 19.29304026 -105.8922705
lfemur  -26.38409996 -3.773499966 3.400880098
ltibia  -0 0 48.58110046
lfoot  4.433866285e-032 5.438630104 -4.40530014
ltoes  -4.250644065 -19.5611806 -102.515957
77
root  14.77037715 38.80133441 -8.458577554 -5.30945015 -57.52880096 7.738820076
lowerback  8.774250031 2.449609995 -4.94863987
upperback  5.455709934 2.675189972 -5.371610165
thorax  0.7920560241 1.216539979 -3.012109995
lowerneck  4.624629974 7.541069984 -10.56529999
upperneck  33.71459961 10.1637001 -0.9573199749
head  9.631230354 2.915499926 1.97815001
lclavicle  0 -9.442270133e-015 7.951389973e-016
lhumerus  18.70219994 7.460010052 69.21080017
lradius  2.59607839e-031 -2.393579125e-031 137.3240051
lwrist  -7.062250077e-031 -0 20.96699905
lhand  -1.496451383e-031 -27.76390076 20.11240005
lfingers  90 7.125020027 -90
lthumb  89.89689403 5.08795885 91.16245106
rclavicle  0 -9.442270133e-015 7.951389973e-016
rhumerus  25.10070038 5.415390015 -74.81430054
rradius  -2.738878453e-031 2.228763975e-031 140.8630066
rwrist  7.062250077e-031 9.483001812e-032 -30.0503006
rhand  -7.920061211e-032 -33.2840004 9.303460121
rfingers  -90 -7.125020027 -90
rthumb  -92.93752616 -24.25625642 -97.11982154
rfemur  -19.88529968 6.677659988 0.6715630293
rtibia  -0 0 64.35900116
rfoot  -0 -18.10790062 -8.020319939
rtoes  5.373923086 19.29304026 -105.8922705
lfemur  -25.44659996 -5.423900127 3.554889917
ltibia  -0 0 47.1012001
lfoot  4.438588407e-032 6.045159817 -5.196839809
ltoes  -4.250644065 -19.5611806 -102.515957
78
root  14.87124436 38.51377833 -8.181244557 -5.302340031 -57.39210129 7.44825983
lowerback  8.435400009 2.275840044 -4.753900051
upperback  5.459370136 2.502470016 -5.039559841
thorax  0.9696450233 1.132680058 -2.745100021
lowerneck  3.927030087 7.742990017 -11.10109997
upperneck  33.60029984 10.60389996 -0.9846810102
head  9.6729002 3.05776 2.1042099
lclavicle  0 -9.442270133e-015 7.951389973e-016
lhumerus  17.72360039 7.610310078 70.26129913
lradius  2.59607839e-031 -2.393579125e-031 137.3240051
lwrist  -1.412450015e-030 2.648343779e-031 20.21240044
lhand  -1.496451383e-031 -27.76390076 20.11240005
lfingers  90 7.125020027 -90
lthumb  89.89689403 5.08795885 91.16245106
rclavicle  0 -9.442270133e-015 7.951389973e-016
rhumerus  24.99609947 6.564380169 -74.30310059
rradius  -2.746718907e-031 2.219094248e-031 141.0650024
rwrist  1.412450015e-030 5.517382873e-033 -29.22270012
rhand  -7.920061211e-032 -33.2840004 9.303460121
rfingers  -90 -7.125020027 -90
rthumb  -92.93752616 -24.25625642 -97.11982154
rfemur  -19.08370018 6.718120098 0.8468629718
rtibia  -0 0 64.94490051
rfoot  -4.627239258e-032 -17.46579933 -6.244669914
rtoes  5.373923086 19.29304026 -105.8922705
lfemur  -24.55430031 -6.945139885 3.672310114
ltibia  -0 0 46.09400177
lfoot  4.42118201e-032 3.287499905 -5.544000149
ltoes  -4.250644065 -19.5611806 -102.515957
79
root  14.97491101 38.17822314 -7.895022114 -5.510779858 -57.3526001 7.313759804
lowerback  8.2582798 2.33295989 -4.375579834
upperback  5.326550007 2.62074995 -4.912670135
thorax  0.9387360215 1.204779983 -2.827100039
lowerneck  3.612529993 7.739600182 -11.09519958
upperneck  33.4253006 10.63560009 -0.8391360044
head  9.64552021 3.104880095 2.167099953
lclavicle  0 -9.442270133e-015 7.951389973e-016
lhumerus  16.81629944 7.136129856 71.18419647
lradius  2.591101332e-031 -2.398966012e-031 137.2050018
lwrist  -1.412450015e-030 8.827812596e-032 19.80529976
lhand  -1.496451383e-031 -27.76390076 20.11240005
lfingers  90 7.125020027 -90
lthumb  89.89689403 5.08795885 91.16245106
rclavicle  0 -9.442270133e-015 7.951389973e-016
rhumerus  24.35250092 7.133560181 -73.98639679
rradius  -2.756529348e-031 2.206896009e-031 141.3190002
rwrist  7.062250077e-031 1.986257834e-031 -28.5781002
rhand  -7.920061211e-032 -33.2840004 9.303460121
rfingers  -90 -7.125020027 -90
rthumb  -92.93752616 -24.25625642 -97.11982154
rfemur  -18.13089943 6.940509796 0.9268699884
rtibia  -0 0 65.30519867
rfoot  -4.62245925e-032 -17.2765007 -4.696559906
rtoes  5.373923086 19.29304026 -105.8922705
lfemur  -23.50919914 -7.943190098 3.58355999
ltibia  -0 0 45.77030182
lfoot  4.415475643e-032 -1.527639985 -6.214960098
ltoes  -4.250644065 -19.5611806 -102.515957
80
root  15.08019965 37.84044521 -7.615310939 -5.52741003 -57.38219833 7.047130108
lowerback  8.051989555 2.455719948 -3.822730064
upperback  5.058549881 2.83427 -4.813819885
thorax  0.7961270213 1.331650019 -3.043889999
lowerneck  3.467129946 7.677239895 -11.03199959
upperneck  33.20449829 10.47430038 -0.3899970055
head  9.555950165 3.106990099 2.307260036
lclavicle  0 -9.442270133e-015 7.951389973e-016
lhumerus  15.80340004 6.509039879 72.07170105
lradius  2.586910146e-031 -2.403484956e-031 137.1049957
lwrist  -1.412450015e-030 -0 20.70249939
lhand  -1.496451383e-031 -27.76390076 20.11240005
lfingers  90 7.125020027 -90
lthumb  89.89689403 5.08795885 91.16245106
rclavicle  0 -9.442270133e-015 7.951389973e-016
rhumerus  23.43440056 7.64124012 -73.82039642
rradius  -2.76394733e-031 2.197598507e-031 141.5119934
rwrist  7.062250077e-031 -0 -27.91360092
rhand  -7.920061211e-032 -33.2840004 9.303460121
rfingers  -90 -7.125020027 -90
rthumb  -92.93752616 -24.25625642 -97.11982154
rfemur  -17.1576004 7.276919842 1.166679978
rtibia  -0 0 65.44129944
rfoot  -4.648374461e-032 -18.27560043 -3.859970093
rtoes  5.373923086 19.29304026 -105.8922705
lfemur  -22.68379974 -8.211359978 3.441849947
ltibia  -0 0 46.1114006
lfoot  4.424961949e-032 -4.051030159 -5.781209946
ltoes  -4.250644065 -19.5611806 -102.515957
81
root  15.17502191 37.53111231 -7.336488859 -5.606500149 -57.36589813 6.978330135
lowerback  7.61480999 2.510319948 -3.291800022
upperback  4.836919785 2.971970081 -4.781770229
thorax  0.8337230086 1.418030024 -3.301019907
lowerneck  3.25206995 7.645800114 -10.92240047
upperneck  32.77669907 10.36769962 0.02736149915
head  9.402460098 3.151629925 2.428159952
lclavicle  0 -9.442270133e-015 7.951389973e-016
lhumerus  14.89729977 6.178870201 72.87609863
lradius  2.580609236e-031 -2.410248952e-031 136.9550018
lwrist  -7.062250077e-031 8.827812596e-032 22.8159008
lhand  -1.496451383e-031 -27.76390076 20.11240005
lfingers  90 7.125020027 -90
lthumb  89.89689403 5.08795885 91.16245106
rclavicle  0 -9.442270133e-015 7.951389973e-016
rhumerus  22.64019966 8.258489609 -73.74199677
rradius  -2.768850139e-031 2.191418021e-031 141.6399994
rwrist  1.412450015e-030 2.427648464e-031 -27.05949974
rhand  -7.920061211e-032 -33.2840004 9.303460121
rfingers  -90 -7.125020027 -90
rthumb  -92.93752616 -24.25625642 -97.11982154
rfemur  -16.14949989 7.477059841 1.33494997
rtibia  -0 0 65.41809845
rfoot  -4.710820037e-032 -20.45089912 -3.525219917
rtoes  5.373923086 19.29304026 -105.8922705
lfemur  -22.31620026 -8.003749847 3.022500038
ltibia  -0 0 46.8927002
lfoot  4.448748083e-032 -7.17550993 -4.776519775
ltoes  -4.250644065 -19.5611806 -102.515957
